<svg width="32" height="34" viewBox="0 0 32 34" fill="none" xmlns="http://www.w3.org/2000/svg">
<g clip-path="url(#clip0_169_33)">
<path d="M10.5093 6.476C10.5093 7.77749 10.5093 9.07899 10.5093 10.3805C17.6552 10.3844 24.8049 10.3844 31.9508 10.3883V6.46027C24.8049 6.46421 17.659 6.47207 10.5093 6.476Z" fill="url(#paint0_linear_169_33)"/>
<path d="M13.197 0V3.92807H31.9999V1.88736C31.9999 0.84538 31.1883 0 30.1879 0H13.197Z" fill="url(#paint1_linear_169_33)"/>
<path d="M12.9141 23.7965C12.9254 23.8043 12.9405 23.8122 12.9518 23.8201C13.1481 23.6903 13.3444 23.5605 13.5407 23.4308C13.3331 23.5527 13.1217 23.6746 12.9141 23.7965Z" fill="url(#paint2_linear_169_33)"/>
<path d="M6.59863 0C6.59863 5.96484 6.59863 11.9258 6.59863 17.8906C6.59863 17.9968 6.59863 18.1069 6.59863 18.213C6.60996 18.3153 6.62883 18.4568 6.66281 18.6219C6.79493 19.2825 7.0554 19.7504 7.16487 19.9352C7.27812 20.124 7.73866 20.8671 8.66729 21.4176C8.72391 21.453 8.73146 21.453 8.94663 21.567C9.06743 21.6299 9.96209 22.1136 10.9209 22.6601C11.5174 22.9983 12.2384 23.4151 13.0537 23.9066C14.073 23.2696 15.096 22.6287 16.1152 21.9917C14.2466 20.8357 12.378 19.6797 10.5057 18.5197C10.5057 12.3465 10.5057 6.17324 10.5057 0C9.2071 0 7.90098 0 6.59863 0Z" fill="url(#paint3_linear_169_33)"/>
<path d="M23.8008 20.9104C23.8612 20.8593 23.9481 20.7846 24.0462 20.6902C24.235 20.5054 24.6464 20.1043 24.8842 19.487C25.0994 18.9326 25.0919 18.4136 25.0805 17.7451C25.0768 17.6036 25.073 17.4974 25.073 17.4738C25.073 15.1028 25.073 12.7279 25.073 10.3569C23.8159 10.3569 22.5589 10.3569 21.3018 10.3569C21.2981 13.0306 21.2981 15.7044 21.2943 18.3782C16.3642 21.6103 11.4342 24.8463 6.50415 28.0784C7.60643 28.8176 8.70493 29.5529 9.80721 30.2921C14.473 27.1623 19.135 24.0363 23.8008 20.9104Z" fill="url(#paint4_linear_169_33)"/>
<path d="M7.25927 23.9537C6.96105 23.7414 6.54959 23.4268 6.0815 23.0218C5.45863 22.4831 5.14909 22.2157 4.85465 21.8422C3.83542 20.5525 3.72595 19.1842 3.72217 18.9758C3.72217 18.9718 3.72217 18.9679 3.72217 18.5433C3.72217 18.4135 3.72217 18.2877 3.72217 18.1579C3.72217 12.1026 3.72217 6.04736 3.72217 -0.00399017H1.81584C0.811708 -5.81737e-05 0.000100088 0.845322 0.00387501 1.8873C0.00764993 13.585 0.00764993 18.8735 0.00387501 19.0898C0.00387501 19.1016 0.000100088 19.1763 0.00387501 19.2825C0.00764993 19.4751 0.0265245 19.6481 0.049174 19.7936C0.0567239 19.8959 0.0718236 20.0453 0.102023 20.2222C0.185071 20.7452 0.332293 21.162 0.509714 21.5866C0.751309 22.1686 0.96648 22.6915 1.28357 23.2617C1.28357 23.2617 1.47232 23.5959 1.66861 23.8947C2.37452 24.976 3.4315 25.904 3.91847 26.3089C5.02829 25.5265 6.1419 24.7401 7.25927 23.9537Z" fill="url(#paint5_linear_169_33)"/>
<path d="M28.1835 12.9088V17.3755C28.2288 18.0125 28.2137 18.8815 27.9646 19.8605C27.4361 21.9406 26.1828 23.2263 25.5901 23.7571C25.5713 23.7729 25.3297 23.938 25.307 23.9537C21.2188 26.7926 17.1419 29.6473 13.0725 32.5137C13.6652 32.9108 14.2578 33.308 14.8543 33.7051C15.4545 34.1062 16.2246 34.1022 16.821 33.7012C20.5318 31.1886 24.2425 28.68 27.9495 26.1675C28.5874 25.7231 29.4859 24.9879 30.2861 23.8397C31.4564 22.1686 31.8225 20.4975 31.9547 19.5932V12.9088H28.1835Z" fill="url(#paint6_linear_169_33)"/>
</g>
<defs>
<linearGradient id="paint0_linear_169_33" x1="7.82908" y1="5.94038" x2="9.48986" y2="16.5971" gradientUnits="userSpaceOnUse">
<stop stop-color="#4EBBF1"/>
<stop offset="0.695" stop-color="#4767E6"/>
</linearGradient>
<linearGradient id="paint1_linear_169_33" x1="10.8467" y1="-0.519891" x2="12.7271" y2="10.0614" gradientUnits="userSpaceOnUse">
<stop stop-color="#4EBBF1"/>
<stop offset="0.695" stop-color="#4767E6"/>
</linearGradient>
<linearGradient id="paint2_linear_169_33" x1="12.8357" y1="23.3793" x2="13.2826" y2="24.2248" gradientUnits="userSpaceOnUse">
<stop stop-color="#4EBBF1"/>
<stop offset="0.695" stop-color="#4767E6"/>
</linearGradient>
<linearGradient id="paint3_linear_169_33" x1="5.40906" y1="-3.1641" x2="30.9117" y2="8.7698" gradientUnits="userSpaceOnUse">
<stop stop-color="#4EBBF1"/>
<stop offset="0.695" stop-color="#4767E6"/>
</linearGradient>
<linearGradient id="paint4_linear_169_33" x1="4.18153" y1="7.7184" x2="31.7648" y2="37.9407" gradientUnits="userSpaceOnUse">
<stop stop-color="#4EBBF1"/>
<stop offset="0.695" stop-color="#4767E6"/>
</linearGradient>
<linearGradient id="paint5_linear_169_33" x1="-0.904937" y1="-3.48659" x2="20.5464" y2="3.46815" gradientUnits="userSpaceOnUse">
<stop stop-color="#4EBBF1"/>
<stop offset="0.695" stop-color="#4767E6"/>
</linearGradient>
<linearGradient id="paint6_linear_169_33" x1="10.7122" y1="10.1167" x2="39.9845" y2="40.9173" gradientUnits="userSpaceOnUse">
<stop stop-color="#4EBBF1"/>
<stop offset="0.695" stop-color="#4767E6"/>
</linearGradient>
<clipPath id="clip0_169_33">
<rect width="32" height="34" fill="white"/>
</clipPath>
</defs>
</svg>
