<svg width="139" height="34" viewBox="0 0 139 34" fill="none" xmlns="http://www.w3.org/2000/svg">
<g clip-path="url(#clip0_169_32)">
<g clip-path="url(#clip1_169_32)">
<path d="M10.5093 6.476C10.5093 7.77749 10.5093 9.07899 10.5093 10.3805C17.6552 10.3844 24.8049 10.3844 31.9508 10.3883V6.46027C24.8049 6.46421 17.659 6.47207 10.5093 6.476Z" fill="url(#paint0_linear_169_32)"/>
<path d="M13.197 0V3.92807H31.9999V1.88736C31.9999 0.84538 31.1883 0 30.1879 0H13.197Z" fill="url(#paint1_linear_169_32)"/>
<path d="M12.9141 23.7965C12.9254 23.8043 12.9405 23.8122 12.9518 23.8201C13.1481 23.6903 13.3444 23.5605 13.5407 23.4308C13.3331 23.5527 13.1217 23.6746 12.9141 23.7965Z" fill="url(#paint2_linear_169_32)"/>
<path d="M6.59863 0C6.59863 5.96484 6.59863 11.9258 6.59863 17.8906C6.59863 17.9968 6.59863 18.1069 6.59863 18.213C6.60996 18.3153 6.62883 18.4568 6.66281 18.6219C6.79493 19.2825 7.0554 19.7504 7.16487 19.9352C7.27812 20.124 7.73866 20.8671 8.66729 21.4176C8.72391 21.453 8.73146 21.453 8.94663 21.567C9.06743 21.6299 9.96209 22.1136 10.9209 22.6601C11.5174 22.9983 12.2384 23.4151 13.0537 23.9066C14.073 23.2696 15.096 22.6287 16.1152 21.9917C14.2466 20.8357 12.378 19.6797 10.5057 18.5197C10.5057 12.3465 10.5057 6.17324 10.5057 0C9.2071 0 7.90098 0 6.59863 0Z" fill="url(#paint3_linear_169_32)"/>
<path d="M23.8008 20.9104C23.8612 20.8593 23.9481 20.7846 24.0462 20.6902C24.235 20.5054 24.6464 20.1043 24.8842 19.487C25.0994 18.9326 25.0919 18.4136 25.0805 17.7451C25.0768 17.6036 25.073 17.4974 25.073 17.4738C25.073 15.1028 25.073 12.7279 25.073 10.3569C23.8159 10.3569 22.5589 10.3569 21.3018 10.3569C21.2981 13.0306 21.2981 15.7044 21.2943 18.3782C16.3642 21.6103 11.4342 24.8463 6.50415 28.0784C7.60643 28.8176 8.70493 29.5529 9.80721 30.2921C14.473 27.1623 19.135 24.0363 23.8008 20.9104Z" fill="url(#paint4_linear_169_32)"/>
<path d="M7.25927 23.9537C6.96105 23.7414 6.54959 23.4268 6.0815 23.0218C5.45863 22.4831 5.14909 22.2157 4.85465 21.8422C3.83542 20.5525 3.72595 19.1842 3.72217 18.9758C3.72217 18.9718 3.72217 18.9679 3.72217 18.5433C3.72217 18.4135 3.72217 18.2877 3.72217 18.1579C3.72217 12.1026 3.72217 6.04736 3.72217 -0.00399017H1.81584C0.811708 -5.81737e-05 0.000100088 0.845322 0.00387501 1.8873C0.00764993 13.585 0.00764993 18.8735 0.00387501 19.0898C0.00387501 19.1016 0.000100088 19.1763 0.00387501 19.2825C0.00764993 19.4751 0.0265245 19.6481 0.049174 19.7936C0.0567239 19.8959 0.0718236 20.0453 0.102023 20.2222C0.185071 20.7452 0.332293 21.162 0.509714 21.5866C0.751309 22.1686 0.96648 22.6915 1.28357 23.2617C1.28357 23.2617 1.47232 23.5959 1.66861 23.8947C2.37452 24.976 3.4315 25.904 3.91847 26.3089C5.02829 25.5265 6.1419 24.7401 7.25927 23.9537Z" fill="url(#paint5_linear_169_32)"/>
<path d="M28.1835 12.9088V17.3755C28.2288 18.0125 28.2137 18.8815 27.9646 19.8605C27.4361 21.9406 26.1828 23.2263 25.5901 23.7571C25.5713 23.7729 25.3297 23.938 25.307 23.9537C21.2188 26.7926 17.1419 29.6473 13.0725 32.5137C13.6652 32.9108 14.2578 33.308 14.8543 33.7051C15.4545 34.1062 16.2246 34.1022 16.821 33.7012C20.5318 31.1886 24.2425 28.68 27.9495 26.1675C28.5874 25.7231 29.4859 24.9879 30.2861 23.8397C31.4564 22.1686 31.8225 20.4975 31.9547 19.5932V12.9088H28.1835Z" fill="url(#paint6_linear_169_32)"/>
</g>
<path d="M45.6758 24.4219V9.83203C45.6758 9.51172 45.7852 9.24219 46.0039 9.02344C46.2227 8.80469 46.4844 8.69531 46.7891 8.69531H53.3398C56.7305 8.69531 59.1953 9.375 60.7344 10.7344C62.2812 12.0859 63.0547 14.2109 63.0547 17.1094C63.0547 20 62.2812 22.1211 60.7344 23.4727C59.1953 24.8242 56.7305 25.5 53.3398 25.5H46.7891C46.4844 25.5 46.2227 25.3984 46.0039 25.1953C45.7852 24.9844 45.6758 24.7266 45.6758 24.4219ZM50.0938 22.1836H53.2109C55.3125 22.1836 56.7422 21.8008 57.5 21.0352C58.2578 20.2695 58.6367 18.9609 58.6367 17.1094C58.6367 15.25 58.2578 13.9375 57.5 13.1719C56.7422 12.3984 55.3125 12.0117 53.2109 12.0117H50.0938V22.1836ZM66.3008 24.0234C65.0977 22.8828 64.4961 21.2422 64.4961 19.1016C64.4961 16.9531 65.1016 15.3047 66.3125 14.1562C67.5234 13 69.2031 12.4219 71.3516 12.4219C73.5 12.4219 75.1758 12.9844 76.3789 14.1094C77.582 15.2266 78.1836 16.832 78.1836 18.9258V19.5938C78.1836 19.8047 78.1133 19.9805 77.9727 20.1211C77.8398 20.2539 77.668 20.3203 77.457 20.3203H68.6328C68.7109 21.2812 68.9844 21.9805 69.4531 22.418C69.9297 22.8555 70.6875 23.0742 71.7266 23.0742C72.7656 23.0742 73.4766 22.8398 73.8594 22.3711C74.2422 21.9023 74.7148 21.6641 75.2773 21.6562H77.0234C77.2344 21.6562 77.4062 21.7266 77.5391 21.8672C77.6797 22 77.75 22.1719 77.75 22.3828C77.75 24.625 75.6133 25.7422 71.3398 25.7344C69.1836 25.7344 67.5039 25.1641 66.3008 24.0234ZM68.6094 17.8477H74.0586C73.9805 16.0039 73.0742 15.082 71.3398 15.082C69.6133 15.082 68.7031 16.0039 68.6094 17.8477ZM89.75 11.4375L88.1328 11.2383C86.5781 11.2383 85.5664 11.4492 85.0977 11.8711C84.6289 12.2852 84.3945 13.1484 84.3945 14.4609V14.6484H88.6367C88.8477 14.6484 89.0195 14.7188 89.1523 14.8594C89.293 14.9922 89.3633 15.1641 89.3633 15.375V16.7695C89.3633 16.9805 89.293 17.1523 89.1523 17.2852C89.0195 17.418 88.8477 17.4844 88.6367 17.4844H84.3945V24.7852C84.3945 24.9961 84.3242 25.168 84.1836 25.3008C84.0508 25.4336 83.8828 25.5 83.6797 25.5H81.0547C80.8438 25.5 80.6719 25.4336 80.5391 25.3008C80.4062 25.168 80.3398 24.9961 80.3398 24.7852V14.4609C80.3398 12.2812 80.8359 10.7383 81.8281 9.83203C82.8203 8.91797 84.5625 8.46094 87.0547 8.46094C88.3359 8.46094 89.2305 8.50781 89.7383 8.60156C90.2461 8.69531 90.5664 8.8125 90.6992 8.95312C90.832 9.08594 90.8984 9.24219 90.8984 9.42188V10.7109C90.8984 10.9219 90.8281 11.0977 90.6875 11.2383C90.5547 11.3711 90.3867 11.4375 90.1836 11.4375H89.75ZM91.8711 24.7852V9.42188C91.8711 9.21094 91.9375 9.03906 92.0703 8.90625C92.2109 8.76562 92.3828 8.69531 92.5859 8.69531H95.2109C95.4141 8.69531 95.582 8.76562 95.7148 8.90625C95.8555 9.03906 95.9258 9.21094 95.9258 9.42188V24.7852C95.9258 24.9883 95.8555 25.1602 95.7148 25.3008C95.582 25.4336 95.4141 25.5 95.2109 25.5H92.5859C92.3828 25.5 92.2109 25.4336 92.0703 25.3008C91.9375 25.1602 91.8711 24.9883 91.8711 24.7852ZM99.8867 24.0234C98.6836 22.8828 98.082 21.2422 98.082 19.1016C98.082 16.9531 98.6875 15.3047 99.8984 14.1562C101.109 13 102.789 12.4219 104.938 12.4219C107.086 12.4219 108.762 12.9844 109.965 14.1094C111.168 15.2266 111.77 16.832 111.77 18.9258V19.5938C111.77 19.8047 111.699 19.9805 111.559 20.1211C111.426 20.2539 111.254 20.3203 111.043 20.3203H102.219C102.297 21.2812 102.57 21.9805 103.039 22.418C103.516 22.8555 104.273 23.0742 105.312 23.0742C106.352 23.0742 107.062 22.8398 107.445 22.3711C107.828 21.9023 108.301 21.6641 108.863 21.6562H110.609C110.82 21.6562 110.992 21.7266 111.125 21.8672C111.266 22 111.336 22.1719 111.336 22.3828C111.336 24.625 109.199 25.7422 104.926 25.7344C102.77 25.7344 101.09 25.1641 99.8867 24.0234ZM102.195 17.8477H107.645C107.566 16.0039 106.66 15.082 104.926 15.082C103.199 15.082 102.289 16.0039 102.195 17.8477ZM120.137 25.7344C117.949 25.7344 116.246 25.1719 115.027 24.0469C113.809 22.9219 113.199 21.2695 113.199 19.0898C113.199 16.9023 113.805 15.2461 115.016 14.1211C116.227 12.9883 117.91 12.4219 120.066 12.4219C122.23 12.4219 123.891 12.7656 125.047 13.4531C126.211 14.1406 126.793 15.1562 126.793 16.5C126.793 16.7109 126.723 16.8828 126.582 17.0156C126.449 17.1484 126.277 17.2148 126.066 17.2148H124.32C123.789 17.2148 123.34 16.9297 122.973 16.3594C122.512 15.625 121.695 15.2578 120.523 15.2578C119.359 15.2578 118.543 15.5586 118.074 16.1602C117.613 16.7539 117.383 17.7266 117.383 19.0781C117.383 20.4297 117.621 21.4062 118.098 22.0078C118.582 22.6094 119.418 22.9102 120.605 22.9102C121.801 22.9102 122.629 22.543 123.09 21.8086C123.457 21.2305 123.906 20.9414 124.438 20.9414H126.184C126.395 20.9414 126.566 21.0117 126.699 21.1523C126.84 21.2852 126.91 21.4531 126.91 21.6562C126.91 23 126.328 24.0156 125.164 24.7031C124.008 25.3906 122.332 25.7344 120.137 25.7344ZM134.949 22.957L136.555 22.8164H136.988C137.199 22.8164 137.371 22.8828 137.504 23.0156C137.645 23.1484 137.715 23.3203 137.715 23.5312V24.7852C137.715 24.957 137.645 25.1133 137.504 25.2539C137.371 25.3867 137.199 25.4688 136.988 25.5C136.191 25.6562 135.152 25.7344 133.871 25.7344C130.512 25.7344 128.832 23.9766 128.832 20.4609V9.42188C128.832 9.21094 128.898 9.03906 129.031 8.90625C129.172 8.76562 129.344 8.69531 129.547 8.69531H132.172C132.375 8.69531 132.543 8.76562 132.676 8.90625C132.816 9.03906 132.887 9.21094 132.887 9.42188V13.3359H136.156C136.359 13.3359 136.527 13.4023 136.66 13.5352C136.801 13.668 136.871 13.8398 136.871 14.0508V15.4453C136.871 15.6562 136.801 15.8281 136.66 15.9609C136.527 16.0938 136.359 16.1602 136.156 16.1602H132.887V20.4609C132.887 21.2578 133.074 21.875 133.449 22.3125C133.824 22.7422 134.324 22.957 134.949 22.957Z" fill="white"/>
</g>
<defs>
<linearGradient id="paint0_linear_169_32" x1="7.82908" y1="5.94038" x2="9.48986" y2="16.5971" gradientUnits="userSpaceOnUse">
<stop stop-color="#4EBBF1"/>
<stop offset="0.695" stop-color="#4767E6"/>
</linearGradient>
<linearGradient id="paint1_linear_169_32" x1="10.8467" y1="-0.519891" x2="12.7271" y2="10.0614" gradientUnits="userSpaceOnUse">
<stop stop-color="#4EBBF1"/>
<stop offset="0.695" stop-color="#4767E6"/>
</linearGradient>
<linearGradient id="paint2_linear_169_32" x1="12.8357" y1="23.3793" x2="13.2826" y2="24.2248" gradientUnits="userSpaceOnUse">
<stop stop-color="#4EBBF1"/>
<stop offset="0.695" stop-color="#4767E6"/>
</linearGradient>
<linearGradient id="paint3_linear_169_32" x1="5.40906" y1="-3.1641" x2="30.9117" y2="8.7698" gradientUnits="userSpaceOnUse">
<stop stop-color="#4EBBF1"/>
<stop offset="0.695" stop-color="#4767E6"/>
</linearGradient>
<linearGradient id="paint4_linear_169_32" x1="4.18153" y1="7.7184" x2="31.7648" y2="37.9407" gradientUnits="userSpaceOnUse">
<stop stop-color="#4EBBF1"/>
<stop offset="0.695" stop-color="#4767E6"/>
</linearGradient>
<linearGradient id="paint5_linear_169_32" x1="-0.904937" y1="-3.48659" x2="20.5464" y2="3.46815" gradientUnits="userSpaceOnUse">
<stop stop-color="#4EBBF1"/>
<stop offset="0.695" stop-color="#4767E6"/>
</linearGradient>
<linearGradient id="paint6_linear_169_32" x1="10.7122" y1="10.1167" x2="39.9845" y2="40.9173" gradientUnits="userSpaceOnUse">
<stop stop-color="#4EBBF1"/>
<stop offset="0.695" stop-color="#4767E6"/>
</linearGradient>
<clipPath id="clip0_169_32">
<rect width="139" height="34" fill="white"/>
</clipPath>
<clipPath id="clip1_169_32">
<rect width="32" height="34" fill="white"/>
</clipPath>
</defs>
</svg>
