<svg width="905" height="190" viewBox="0 0 905 190" fill="none" xmlns="http://www.w3.org/2000/svg">
<g filter="url(#filter0_d_366_97)">
<path d="M12.36 173.072V8.46399H84.808V31.76H107.848V54.8H131.4V126.736H107.848V150.032H84.808V173.072H12.36ZM38.216 147.472H82.248V124.176H105.288V57.36H82.248V34.32H38.216V147.472ZM185.656 173.072V150.032H162.36V78.096H185.656V54.8H257.848V78.096H281.4V103.44H255.288V80.4H188.216V100.88H234.808V126.736H188.216V147.472H255.288V123.92H281.4V149.776H257.848V173.072H185.656ZM312.36 173.072V31.76H335.656V8.46399H407.848V31.76H431.4V173.072H405.288V34.32H338.216V78.096H384.808V103.44H338.216V173.072H312.36ZM485.656 173.072V150.032H462.36V78.096H485.656V54.8H557.848V78.096H581.4V103.44H555.288V80.4H488.216V100.88H534.808V126.736H488.216V147.472H555.288V123.92H581.4V149.776H557.848V173.072H485.656ZM635.656 173.072V150.032H612.36V78.096H635.656V54.8H707.848V78.096H731.4V103.44H705.288V80.4H638.216V147.472H705.288V124.176H731.4V150.032H707.848V173.072H635.656ZM795.946 173.072V150.032H772.906V80.4H749.61V54.8H772.906V8.46399H798.506V54.8H868.65V80.4H798.506V147.472H866.09V124.176H891.946V150.032H868.65V173.072H795.946Z" fill="white"/>
</g>
<defs>
<filter id="filter0_d_366_97" x="0.0603514" y="0.163867" width="904.186" height="189.208" filterUnits="userSpaceOnUse" color-interpolation-filters="sRGB">
<feFlood flood-opacity="0" result="BackgroundImageFix"/>
<feColorMatrix in="SourceAlpha" type="matrix" values="0 0 0 0 0 0 0 0 0 0 0 0 0 0 0 0 0 0 127 0" result="hardAlpha"/>
<feOffset dy="4"/>
<feGaussianBlur stdDeviation="6.15"/>
<feComposite in2="hardAlpha" operator="out"/>
<feColorMatrix type="matrix" values="0 0 0 0 0 0 0 0 0 0 0 0 0 0 0 0 0 0 0.98 0"/>
<feBlend mode="normal" in2="BackgroundImageFix" result="effect1_dropShadow_366_97"/>
<feBlend mode="normal" in="SourceGraphic" in2="effect1_dropShadow_366_97" result="shape"/>
</filter>
</defs>
</svg>
